<?xml version="1.0" standalone="no"?><!DOCTYPE svg PUBLIC "-//W3C//DTD SVG 1.1//EN" "http://www.w3.org/Graphics/SVG/1.1/DTD/svg11.dtd"><svg t="1496914489469" class="icon" style="" viewBox="0 0 1024 1024" version="1.1" xmlns="http://www.w3.org/2000/svg" p-id="2864" xmlns:xlink="http://www.w3.org/1999/xlink" width="256" height="256"><defs><style type="text/css"></style></defs><path d="M792.407168 299.125448c-17.617204-30.096057-46.245161-55.053763-93.591397-55.053763 1.101075-20.92043-1.101075-31.197133-15.048029-37.43656-13.212903 5.138351-17.617204 11.010753-26.792832 19.45233-5.138351-11.377778-9.909677-22.755556-15.048028-34.133333h-13.212904c-13.212903 14.681004-7.707527 22.38853-16.516129 44.777061-5.872401 15.048029-23.489606 31.197133-31.197132 47.713261-10.276703 22.021505-8.074552 49.181362-19.45233 73.037993-15.782079 33.399283-46.245161 59.091039-66.798566 88.086022-37.069534 52.484588-77.809319 154.150538-43.308961 237.098208 10.643728 24.957706 23.856631 58.356989 38.537635 78.910394-138.735484-35.234409-55.420789-211.406452-78.910395-344.269534-17.984229-102.767025-82.21362-153.049462-202.230824-143.139785 11.010753 39.271685 40.005735 63.862366 32.665233 123.687455C235.263082 455.111111 201.863799 502.090323 187.182796 558.245161c-27.159857 102.032975 16.883154 218.379928 80.378494 247.374911 62.02724 28.627957 183.87957-4.037276 248.475986-13.579929 20.18638-2.936201 37.803584 13.212903 53.585663 17.98423 31.931183 9.542652 60.926165 6.606452 89.187097 17.984229 8.808602-3.670251 7.707527-3.303226 10.276702-10.276702 5.138351 1.101075 9.909677 1.835125 15.048029 2.9362 4.404301-3.670251 6.606452-2.569176 4.404301-8.808602-3.670251-6.239427-9.175627-7.707527-19.45233-7.340502v-1.4681c12.845878-14.313978 35.601434-5.505376 57.989965-4.404301 3.670251-8.441577 9.175627-6.606452 17.984229-13.579928-6.973477-9.909677-29.729032-16.516129-41.473835-20.92043 6.239427-23.856631 28.627957-37.436559 34.133333-65.697491 5.505376-27.893907-8.074552-56.154839-15.048029-74.506094-19.085305-50.649462-26.058781-126.990681 5.872402-169.932616 8.808602-12.111828 38.904659-19.819355 53.585663-25.324731 3.303226-5.872401 6.973477-19.085305 5.872401-25.324732-0.367025-1.4681-1.101075-2.936201-1.4681-4.404301-19.819355-5.138351-49.915412-2.936201-68.266667 1.468101-4.037276-12.478853-8.074552-24.957706-11.744803-37.436559 50.649462 1.4681 78.910394-22.021505 85.883871-63.862366z m-77.442293-13.579928c-6.239427 0-11.377778-5.138351-11.377778-11.377778 0-6.239427 5.138351-11.377778 11.377778-11.377778s11.377778 5.138351 11.377777 11.377778c0.367025 6.239427-4.771326 11.377778-11.377777 11.377778z m144.24086 99.830824c-2.569176-8.074552-7.340502-11.010753-12.111828-12.478853-11.744803-4.037276-8.441577 4.771326-16.149104-9.909677-3.303226 0.367025-7.340502-1.4681-8.808602 1.835125-5.138351 11.377778-8.074552 2.202151-20.18638 7.340502-5.138351 2.569176-7.340502 4.771326-6.606452 4.404301-0.367025 2.936201-1.101075 5.872401-1.4681 8.808602h65.330466z m-60.926165 7.340502c-10.276703 34.500358 8.441577 51.383513 29.729032 59.458064 21.287455-13.946953 27.893907-20.18638 26.792832-57.989964-18.71828-0.367025-37.803584-0.73405-56.521864-1.4681z" fill="#f3ca7e" p-id="2865"></path></svg>